<svg xmlns="http://www.w3.org/2000/svg" viewBox="0 0 800 560" width="800" height="560" preserveAspectRatio="xMidYMid slice"><defs><filter id="glow" x="-50%" y="-50%" width="200%" height="200%"><feGaussianBlur stdDeviation="6"/></filter><filter id="soft" x="-50%" y="-50%" width="200%" height="200%"><feGaussianBlur stdDeviation="28"/></filter><filter id="glow2" x="-50%" y="-50%" width="200%" height="200%"><feGaussianBlur stdDeviation="3"/></filter>
    <linearGradient id="sky" x1="0" y1="0" x2="0" y2="1"><stop offset="0" stop-color="#081633"/><stop offset=".55" stop-color="#1c4f9c"/><stop offset="1" stop-color="#ff9e5e"/></linearGradient>
    </defs><rect width="800" height="560" fill="url(#sky)"/><circle cx="637" cy="65" r="1.5" fill="#fff" opacity="0.78"/><circle cx="757" cy="166" r="1.7" fill="#fff" opacity="0.32"/><circle cx="476" cy="198" r="1.7" fill="#fff" opacity="0.69"/><circle cx="160" cy="28" r="1.0" fill="#fff" opacity="0.82"/><circle cx="389" cy="139" r="0.7" fill="#fff" opacity="0.45"/><circle cx="748" cy="55" r="1.1" fill="#fff" opacity="0.41"/><circle cx="784" cy="99" r="0.8" fill="#fff" opacity="0.78"/><circle cx="142" cy="158" r="1.3" fill="#fff" opacity="0.38"/><circle cx="1" cy="1" r="0.9" fill="#fff" opacity="0.43"/><circle cx="169" cy="42" r="0.9" fill="#fff" opacity="0.88"/><circle cx="552" cy="173" r="1.4" fill="#fff" opacity="0.41"/><circle cx="707" cy="50" r="1.8" fill="#fff" opacity="0.84"/><circle cx="305" cy="5" r="1.0" fill="#fff" opacity="0.40"/><circle cx="149" cy="67" r="0.7" fill="#fff" opacity="0.48"/><circle cx="617" cy="150" r="0.6" fill="#fff" opacity="0.71"/><circle cx="346" cy="16" r="1.0" fill="#fff" opacity="0.79"/><circle cx="492" cy="178" r="1.0" fill="#fff" opacity="0.59"/><circle cx="721" cy="45" r="0.7" fill="#fff" opacity="0.89"/><circle cx="23" cy="191" r="1.0" fill="#fff" opacity="0.54"/><circle cx="562" cy="107" r="1.0" fill="#fff" opacity="0.65"/><circle cx="9" cy="115" r="0.7" fill="#fff" opacity="0.41"/><circle cx="201" cy="30" r="1.5" fill="#fff" opacity="0.86"/><circle cx="473" cy="88" r="1.2" fill="#fff" opacity="0.84"/><circle cx="256" cy="198" r="1.2" fill="#fff" opacity="0.65"/><circle cx="799" cy="94" r="1.6" fill="#fff" opacity="0.32"/><circle cx="93" cy="53" r="1.0" fill="#fff" opacity="0.67"/><circle cx="151" cy="87" r="0.9" fill="#fff" opacity="0.72"/><circle cx="94" cy="79" r="1.4" fill="#fff" opacity="0.48"/><circle cx="80" cy="160" r="0.8" fill="#fff" opacity="0.71"/><circle cx="495" cy="41" r="1.5" fill="#fff" opacity="0.35"/><circle cx="615" cy="136" r="1.7" fill="#fff" opacity="0.32"/><circle cx="758" cy="152" r="1.0" fill="#fff" opacity="0.45"/><circle cx="666" cy="107" r="0.8" fill="#fff" opacity="0.89"/><circle cx="653" cy="8" r="1.6" fill="#fff" opacity="0.50"/><circle cx="212" cy="33" r="1.8" fill="#fff" opacity="0.64"/><circle cx="135" cy="161" r="1.7" fill="#fff" opacity="0.55"/><circle cx="172" cy="111" r="1.0" fill="#fff" opacity="0.34"/><circle cx="430" cy="75" r="0.8" fill="#fff" opacity="0.85"/><circle cx="635" cy="43" r="1.8" fill="#fff" opacity="0.57"/><circle cx="499" cy="176" r="1.5" fill="#fff" opacity="0.59"/><g transform="translate(400 235)" opacity=".16" stroke="#fff" fill="none"><circle r="190" stroke-width="7"/><circle r="30" stroke-width="5"/><line x1="30.0" y1="0.0" x2="186.0" y2="0.0" stroke-width="3"/><line x1="29.0" y1="7.8" x2="179.7" y2="48.1" stroke-width="3"/><line x1="26.0" y1="15.0" x2="161.1" y2="93.0" stroke-width="3"/><line x1="21.2" y1="21.2" x2="131.5" y2="131.5" stroke-width="3"/><line x1="15.0" y1="26.0" x2="93.0" y2="161.1" stroke-width="3"/><line x1="7.8" y1="29.0" x2="48.1" y2="179.7" stroke-width="3"/><line x1="0.0" y1="30.0" x2="0.0" y2="186.0" stroke-width="3"/><line x1="-7.8" y1="29.0" x2="-48.1" y2="179.7" stroke-width="3"/><line x1="-15.0" y1="26.0" x2="-93.0" y2="161.1" stroke-width="3"/><line x1="-21.2" y1="21.2" x2="-131.5" y2="131.5" stroke-width="3"/><line x1="-26.0" y1="15.0" x2="-161.1" y2="93.0" stroke-width="3"/><line x1="-29.0" y1="7.8" x2="-179.7" y2="48.1" stroke-width="3"/><line x1="-30.0" y1="0.0" x2="-186.0" y2="0.0" stroke-width="3"/><line x1="-29.0" y1="-7.8" x2="-179.7" y2="-48.1" stroke-width="3"/><line x1="-26.0" y1="-15.0" x2="-161.1" y2="-93.0" stroke-width="3"/><line x1="-21.2" y1="-21.2" x2="-131.5" y2="-131.5" stroke-width="3"/><line x1="-15.0" y1="-26.0" x2="-93.0" y2="-161.1" stroke-width="3"/><line x1="-7.8" y1="-29.0" x2="-48.1" y2="-179.7" stroke-width="3"/><line x1="-0.0" y1="-30.0" x2="-0.0" y2="-186.0" stroke-width="3"/><line x1="7.8" y1="-29.0" x2="48.1" y2="-179.7" stroke-width="3"/><line x1="15.0" y1="-26.0" x2="93.0" y2="-161.1" stroke-width="3"/><line x1="21.2" y1="-21.2" x2="131.5" y2="-131.5" stroke-width="3"/><line x1="26.0" y1="-15.0" x2="161.1" y2="-93.0" stroke-width="3"/><line x1="29.0" y1="-7.8" x2="179.7" y2="-48.1" stroke-width="3"/></g><line x1="358" y1="280" x2="338" y2="297" stroke="#7ee8fa" stroke-opacity=".45" stroke-width="1.4"/><line x1="358" y1="280" x2="373" y2="226" stroke="#7ee8fa" stroke-opacity=".45" stroke-width="1.4"/><line x1="473" y1="115" x2="429" y2="72" stroke="#7ee8fa" stroke-opacity=".45" stroke-width="1.4"/><line x1="473" y1="115" x2="406" y2="132" stroke="#7ee8fa" stroke-opacity=".45" stroke-width="1.4"/><line x1="175" y1="233" x2="151" y2="291" stroke="#7ee8fa" stroke-opacity=".45" stroke-width="1.4"/><line x1="175" y1="233" x2="338" y2="297" stroke="#7ee8fa" stroke-opacity=".45" stroke-width="1.4"/><line x1="604" y1="131" x2="632" y2="183" stroke="#7ee8fa" stroke-opacity=".45" stroke-width="1.4"/><line x1="604" y1="131" x2="557" y2="175" stroke="#7ee8fa" stroke-opacity=".45" stroke-width="1.4"/><line x1="702" y1="295" x2="632" y2="183" stroke="#7ee8fa" stroke-opacity=".45" stroke-width="1.4"/><line x1="702" y1="295" x2="725" y2="131" stroke="#7ee8fa" stroke-opacity=".45" stroke-width="1.4"/><line x1="406" y1="132" x2="429" y2="72" stroke="#7ee8fa" stroke-opacity=".45" stroke-width="1.4"/><line x1="406" y1="132" x2="473" y2="115" stroke="#7ee8fa" stroke-opacity=".45" stroke-width="1.4"/><line x1="151" y1="291" x2="175" y2="233" stroke="#7ee8fa" stroke-opacity=".45" stroke-width="1.4"/><line x1="151" y1="291" x2="338" y2="297" stroke="#7ee8fa" stroke-opacity=".45" stroke-width="1.4"/><line x1="338" y1="297" x2="358" y2="280" stroke="#7ee8fa" stroke-opacity=".45" stroke-width="1.4"/><line x1="338" y1="297" x2="373" y2="226" stroke="#7ee8fa" stroke-opacity=".45" stroke-width="1.4"/><line x1="429" y1="72" x2="424" y2="57" stroke="#7ee8fa" stroke-opacity=".45" stroke-width="1.4"/><line x1="429" y1="72" x2="473" y2="115" stroke="#7ee8fa" stroke-opacity=".45" stroke-width="1.4"/><line x1="424" y1="57" x2="429" y2="72" stroke="#7ee8fa" stroke-opacity=".45" stroke-width="1.4"/><line x1="424" y1="57" x2="473" y2="115" stroke="#7ee8fa" stroke-opacity=".45" stroke-width="1.4"/><line x1="373" y1="226" x2="360" y2="214" stroke="#7ee8fa" stroke-opacity=".45" stroke-width="1.4"/><line x1="373" y1="226" x2="358" y2="280" stroke="#7ee8fa" stroke-opacity=".45" stroke-width="1.4"/><line x1="632" y1="183" x2="604" y2="131" stroke="#7ee8fa" stroke-opacity=".45" stroke-width="1.4"/><line x1="632" y1="183" x2="557" y2="175" stroke="#7ee8fa" stroke-opacity=".45" stroke-width="1.4"/><line x1="557" y1="175" x2="604" y2="131" stroke="#7ee8fa" stroke-opacity=".45" stroke-width="1.4"/><line x1="557" y1="175" x2="632" y2="183" stroke="#7ee8fa" stroke-opacity=".45" stroke-width="1.4"/><line x1="360" y1="214" x2="373" y2="226" stroke="#7ee8fa" stroke-opacity=".45" stroke-width="1.4"/><line x1="360" y1="214" x2="358" y2="280" stroke="#7ee8fa" stroke-opacity=".45" stroke-width="1.4"/><line x1="725" y1="131" x2="632" y2="183" stroke="#7ee8fa" stroke-opacity=".45" stroke-width="1.4"/><line x1="725" y1="131" x2="604" y2="131" stroke="#7ee8fa" stroke-opacity=".45" stroke-width="1.4"/><circle cx="358" cy="280" r="9" fill="#ffd166" opacity=".6" filter="url(#glow)"/><circle cx="358" cy="280" r="3.6" fill="#fff"/><circle cx="473" cy="115" r="9" fill="#7ee8fa" opacity=".6" filter="url(#glow)"/><circle cx="473" cy="115" r="3.6" fill="#fff"/><circle cx="175" cy="233" r="9" fill="#7ee8fa" opacity=".6" filter="url(#glow)"/><circle cx="175" cy="233" r="3.6" fill="#fff"/><circle cx="604" cy="131" r="9" fill="#ffd166" opacity=".6" filter="url(#glow)"/><circle cx="604" cy="131" r="3.6" fill="#fff"/><circle cx="702" cy="295" r="9" fill="#7ee8fa" opacity=".6" filter="url(#glow)"/><circle cx="702" cy="295" r="3.6" fill="#fff"/><circle cx="406" cy="132" r="9" fill="#7ee8fa" opacity=".6" filter="url(#glow)"/><circle cx="406" cy="132" r="3.6" fill="#fff"/><circle cx="151" cy="291" r="9" fill="#ffd166" opacity=".6" filter="url(#glow)"/><circle cx="151" cy="291" r="3.6" fill="#fff"/><circle cx="338" cy="297" r="9" fill="#7ee8fa" opacity=".6" filter="url(#glow)"/><circle cx="338" cy="297" r="3.6" fill="#fff"/><circle cx="429" cy="72" r="9" fill="#7ee8fa" opacity=".6" filter="url(#glow)"/><circle cx="429" cy="72" r="3.6" fill="#fff"/><circle cx="424" cy="57" r="9" fill="#ffd166" opacity=".6" filter="url(#glow)"/><circle cx="424" cy="57" r="3.6" fill="#fff"/><circle cx="373" cy="226" r="9" fill="#7ee8fa" opacity=".6" filter="url(#glow)"/><circle cx="373" cy="226" r="3.6" fill="#fff"/><circle cx="632" cy="183" r="9" fill="#7ee8fa" opacity=".6" filter="url(#glow)"/><circle cx="632" cy="183" r="3.6" fill="#fff"/><circle cx="557" cy="175" r="9" fill="#ffd166" opacity=".6" filter="url(#glow)"/><circle cx="557" cy="175" r="3.6" fill="#fff"/><circle cx="360" cy="214" r="9" fill="#7ee8fa" opacity=".6" filter="url(#glow)"/><circle cx="360" cy="214" r="3.6" fill="#fff"/><circle cx="725" cy="131" r="9" fill="#7ee8fa" opacity=".6" filter="url(#glow)"/><circle cx="725" cy="131" r="3.6" fill="#fff"/><rect x="-10" y="468" width="81" height="92" fill="#0a1226"/><rect x="10" y="480" width="5" height="7" fill="#ffd166" opacity=".85"/><rect x="22" y="480" width="5" height="7" fill="#ffd166" opacity=".85"/><rect x="34" y="480" width="5" height="7" fill="#ffd166" opacity=".85"/><rect x="-2" y="496" width="5" height="7" fill="#ffd166" opacity=".85"/><rect x="10" y="496" width="5" height="7" fill="#ffd166" opacity=".85"/><rect x="22" y="496" width="5" height="7" fill="#ffd166" opacity=".85"/><rect x="-2" y="512" width="5" height="7" fill="#ffd166" opacity=".85"/><rect x="34" y="512" width="5" height="7" fill="#ffd166" opacity=".85"/><rect x="46" y="512" width="5" height="7" fill="#ffd166" opacity=".85"/><rect x="58" y="512" width="5" height="7" fill="#ffd166" opacity=".85"/><rect x="10" y="528" width="5" height="7" fill="#ffd166" opacity=".85"/><rect x="22" y="528" width="5" height="7" fill="#ffd166" opacity=".85"/><rect x="46" y="528" width="5" height="7" fill="#ffd166" opacity=".85"/><rect x="58" y="528" width="5" height="7" fill="#ffd166" opacity=".85"/><rect x="75" y="329" width="83" height="231" fill="#0a1226"/><rect x="107" y="341" width="5" height="7" fill="#ffd166" opacity=".85"/><rect x="119" y="341" width="5" height="7" fill="#ffd166" opacity=".85"/><rect x="83" y="357" width="5" height="7" fill="#ffd166" opacity=".85"/><rect x="119" y="357" width="5" height="7" fill="#ffd166" opacity=".85"/><rect x="143" y="357" width="5" height="7" fill="#ffd166" opacity=".85"/><rect x="83" y="373" width="5" height="7" fill="#ffd166" opacity=".85"/><rect x="95" y="373" width="5" height="7" fill="#ffd166" opacity=".85"/><rect x="107" y="373" width="5" height="7" fill="#ffd166" opacity=".85"/><rect x="119" y="373" width="5" height="7" fill="#ffd166" opacity=".85"/><rect x="131" y="373" width="5" height="7" fill="#ffd166" opacity=".85"/><rect x="143" y="373" width="5" height="7" fill="#ffd166" opacity=".85"/><rect x="131" y="389" width="5" height="7" fill="#ffd166" opacity=".85"/><rect x="83" y="405" width="5" height="7" fill="#ffd166" opacity=".85"/><rect x="107" y="405" width="5" height="7" fill="#ffd166" opacity=".85"/><rect x="131" y="405" width="5" height="7" fill="#ffd166" opacity=".85"/><rect x="83" y="421" width="5" height="7" fill="#ffd166" opacity=".85"/><rect x="95" y="421" width="5" height="7" fill="#ffd166" opacity=".85"/><rect x="119" y="421" width="5" height="7" fill="#ffd166" opacity=".85"/><rect x="143" y="421" width="5" height="7" fill="#ffd166" opacity=".85"/><rect x="83" y="453" width="5" height="7" fill="#ffd166" opacity=".85"/><rect x="95" y="453" width="5" height="7" fill="#ffd166" opacity=".85"/><rect x="95" y="469" width="5" height="7" fill="#ffd166" opacity=".85"/><rect x="119" y="469" width="5" height="7" fill="#ffd166" opacity=".85"/><rect x="131" y="469" width="5" height="7" fill="#ffd166" opacity=".85"/><rect x="95" y="485" width="5" height="7" fill="#ffd166" opacity=".85"/><rect x="131" y="485" width="5" height="7" fill="#ffd166" opacity=".85"/><rect x="83" y="501" width="5" height="7" fill="#ffd166" opacity=".85"/><rect x="95" y="501" width="5" height="7" fill="#ffd166" opacity=".85"/><rect x="119" y="501" width="5" height="7" fill="#ffd166" opacity=".85"/><rect x="95" y="517" width="5" height="7" fill="#ffd166" opacity=".85"/><rect x="143" y="517" width="5" height="7" fill="#ffd166" opacity=".85"/><rect x="107" y="533" width="5" height="7" fill="#ffd166" opacity=".85"/><rect x="131" y="533" width="5" height="7" fill="#ffd166" opacity=".85"/><rect x="163" y="395" width="59" height="165" fill="#0a1226"/><line x1="192" y1="395" x2="192" y2="361" stroke="#0a1226" stroke-width="3"/><circle cx="192" cy="359" r="3" fill="#ff4d4d"/><rect x="171" y="407" width="5" height="7" fill="#ffd166" opacity=".85"/><rect x="171" y="423" width="5" height="7" fill="#ffd166" opacity=".85"/><rect x="195" y="423" width="5" height="7" fill="#ffd166" opacity=".85"/><rect x="195" y="439" width="5" height="7" fill="#ffd166" opacity=".85"/><rect x="183" y="471" width="5" height="7" fill="#ffd166" opacity=".85"/><rect x="195" y="471" width="5" height="7" fill="#ffd166" opacity=".85"/><rect x="207" y="471" width="5" height="7" fill="#ffd166" opacity=".85"/><rect x="207" y="487" width="5" height="7" fill="#ffd166" opacity=".85"/><rect x="171" y="503" width="5" height="7" fill="#ffd166" opacity=".85"/><rect x="207" y="503" width="5" height="7" fill="#ffd166" opacity=".85"/><rect x="171" y="519" width="5" height="7" fill="#ffd166" opacity=".85"/><rect x="207" y="519" width="5" height="7" fill="#ffd166" opacity=".85"/><rect x="183" y="535" width="5" height="7" fill="#ffd166" opacity=".85"/><rect x="228" y="347" width="80" height="213" fill="#0a1226"/><rect x="248" y="375" width="5" height="7" fill="#ffd166" opacity=".85"/><rect x="260" y="375" width="5" height="7" fill="#ffd166" opacity=".85"/><rect x="248" y="391" width="5" height="7" fill="#ffd166" opacity=".85"/><rect x="260" y="391" width="5" height="7" fill="#ffd166" opacity=".85"/><rect x="272" y="407" width="5" height="7" fill="#ffd166" opacity=".85"/><rect x="296" y="407" width="5" height="7" fill="#ffd166" opacity=".85"/><rect x="236" y="423" width="5" height="7" fill="#ffd166" opacity=".85"/><rect x="248" y="423" width="5" height="7" fill="#ffd166" opacity=".85"/><rect x="272" y="423" width="5" height="7" fill="#ffd166" opacity=".85"/><rect x="296" y="423" width="5" height="7" fill="#ffd166" opacity=".85"/><rect x="260" y="439" width="5" height="7" fill="#ffd166" opacity=".85"/><rect x="272" y="439" width="5" height="7" fill="#ffd166" opacity=".85"/><rect x="236" y="455" width="5" height="7" fill="#ffd166" opacity=".85"/><rect x="296" y="455" width="5" height="7" fill="#ffd166" opacity=".85"/><rect x="236" y="471" width="5" height="7" fill="#ffd166" opacity=".85"/><rect x="260" y="471" width="5" height="7" fill="#ffd166" opacity=".85"/><rect x="272" y="471" width="5" height="7" fill="#ffd166" opacity=".85"/><rect x="248" y="487" width="5" height="7" fill="#ffd166" opacity=".85"/><rect x="272" y="487" width="5" height="7" fill="#ffd166" opacity=".85"/><rect x="236" y="503" width="5" height="7" fill="#ffd166" opacity=".85"/><rect x="248" y="503" width="5" height="7" fill="#ffd166" opacity=".85"/><rect x="284" y="503" width="5" height="7" fill="#ffd166" opacity=".85"/><rect x="248" y="519" width="5" height="7" fill="#ffd166" opacity=".85"/><rect x="260" y="519" width="5" height="7" fill="#ffd166" opacity=".85"/><rect x="296" y="519" width="5" height="7" fill="#ffd166" opacity=".85"/><rect x="260" y="535" width="5" height="7" fill="#ffd166" opacity=".85"/><rect x="272" y="535" width="5" height="7" fill="#ffd166" opacity=".85"/><rect x="284" y="535" width="5" height="7" fill="#ffd166" opacity=".85"/><rect x="312" y="436" width="77" height="124" fill="#0a1226"/><rect x="356" y="448" width="5" height="7" fill="#ffd166" opacity=".85"/><rect x="368" y="448" width="5" height="7" fill="#ffd166" opacity=".85"/><rect x="380" y="448" width="5" height="7" fill="#ffd166" opacity=".85"/><rect x="332" y="464" width="5" height="7" fill="#ffd166" opacity=".85"/><rect x="344" y="480" width="5" height="7" fill="#ffd166" opacity=".85"/><rect x="380" y="496" width="5" height="7" fill="#ffd166" opacity=".85"/><rect x="344" y="512" width="5" height="7" fill="#ffd166" opacity=".85"/><rect x="368" y="512" width="5" height="7" fill="#ffd166" opacity=".85"/><rect x="320" y="528" width="5" height="7" fill="#ffd166" opacity=".85"/><rect x="368" y="528" width="5" height="7" fill="#ffd166" opacity=".85"/><rect x="320" y="544" width="5" height="7" fill="#ffd166" opacity=".85"/><rect x="332" y="544" width="5" height="7" fill="#ffd166" opacity=".85"/><rect x="368" y="544" width="5" height="7" fill="#ffd166" opacity=".85"/><rect x="380" y="544" width="5" height="7" fill="#ffd166" opacity=".85"/><rect x="395" y="424" width="57" height="136" fill="#0a1226"/><rect x="403" y="436" width="5" height="7" fill="#ffd166" opacity=".85"/><rect x="415" y="436" width="5" height="7" fill="#ffd166" opacity=".85"/><rect x="427" y="436" width="5" height="7" fill="#ffd166" opacity=".85"/><rect x="439" y="436" width="5" height="7" fill="#ffd166" opacity=".85"/><rect x="439" y="452" width="5" height="7" fill="#ffd166" opacity=".85"/><rect x="415" y="484" width="5" height="7" fill="#ffd166" opacity=".85"/><rect x="427" y="484" width="5" height="7" fill="#ffd166" opacity=".85"/><rect x="439" y="484" width="5" height="7" fill="#ffd166" opacity=".85"/><rect x="403" y="500" width="5" height="7" fill="#ffd166" opacity=".85"/><rect x="439" y="500" width="5" height="7" fill="#ffd166" opacity=".85"/><rect x="403" y="516" width="5" height="7" fill="#ffd166" opacity=".85"/><rect x="415" y="516" width="5" height="7" fill="#ffd166" opacity=".85"/><rect x="427" y="516" width="5" height="7" fill="#ffd166" opacity=".85"/><rect x="439" y="516" width="5" height="7" fill="#ffd166" opacity=".85"/><rect x="403" y="532" width="5" height="7" fill="#ffd166" opacity=".85"/><rect x="427" y="532" width="5" height="7" fill="#ffd166" opacity=".85"/><rect x="456" y="455" width="64" height="105" fill="#0a1226"/><rect x="500" y="467" width="5" height="7" fill="#ffd166" opacity=".85"/><rect x="476" y="483" width="5" height="7" fill="#ffd166" opacity=".85"/><rect x="464" y="499" width="5" height="7" fill="#ffd166" opacity=".85"/><rect x="476" y="499" width="5" height="7" fill="#ffd166" opacity=".85"/><rect x="488" y="499" width="5" height="7" fill="#ffd166" opacity=".85"/><rect x="500" y="499" width="5" height="7" fill="#ffd166" opacity=".85"/><rect x="464" y="515" width="5" height="7" fill="#ffd166" opacity=".85"/><rect x="500" y="515" width="5" height="7" fill="#ffd166" opacity=".85"/><rect x="464" y="531" width="5" height="7" fill="#ffd166" opacity=".85"/><rect x="488" y="531" width="5" height="7" fill="#ffd166" opacity=".85"/><rect x="476" y="547" width="5" height="7" fill="#ffd166" opacity=".85"/><rect x="488" y="547" width="5" height="7" fill="#ffd166" opacity=".85"/><rect x="522" y="360" width="82" height="200" fill="#0a1226"/><rect x="530" y="372" width="5" height="7" fill="#ffd166" opacity=".85"/><rect x="578" y="372" width="5" height="7" fill="#ffd166" opacity=".85"/><rect x="590" y="372" width="5" height="7" fill="#ffd166" opacity=".85"/><rect x="590" y="388" width="5" height="7" fill="#ffd166" opacity=".85"/><rect x="542" y="404" width="5" height="7" fill="#ffd166" opacity=".85"/><rect x="542" y="420" width="5" height="7" fill="#ffd166" opacity=".85"/><rect x="542" y="436" width="5" height="7" fill="#ffd166" opacity=".85"/><rect x="578" y="436" width="5" height="7" fill="#ffd166" opacity=".85"/><rect x="590" y="436" width="5" height="7" fill="#ffd166" opacity=".85"/><rect x="554" y="452" width="5" height="7" fill="#ffd166" opacity=".85"/><rect x="578" y="452" width="5" height="7" fill="#ffd166" opacity=".85"/><rect x="590" y="452" width="5" height="7" fill="#ffd166" opacity=".85"/><rect x="566" y="468" width="5" height="7" fill="#ffd166" opacity=".85"/><rect x="542" y="484" width="5" height="7" fill="#ffd166" opacity=".85"/><rect x="554" y="484" width="5" height="7" fill="#ffd166" opacity=".85"/><rect x="554" y="500" width="5" height="7" fill="#ffd166" opacity=".85"/><rect x="590" y="500" width="5" height="7" fill="#ffd166" opacity=".85"/><rect x="542" y="516" width="5" height="7" fill="#ffd166" opacity=".85"/><rect x="554" y="532" width="5" height="7" fill="#ffd166" opacity=".85"/><rect x="578" y="532" width="5" height="7" fill="#ffd166" opacity=".85"/><rect x="612" y="375" width="62" height="185" fill="#0a1226"/><rect x="620" y="387" width="5" height="7" fill="#ffd166" opacity=".85"/><rect x="644" y="387" width="5" height="7" fill="#ffd166" opacity=".85"/><rect x="620" y="403" width="5" height="7" fill="#ffd166" opacity=".85"/><rect x="632" y="403" width="5" height="7" fill="#ffd166" opacity=".85"/><rect x="656" y="403" width="5" height="7" fill="#ffd166" opacity=".85"/><rect x="620" y="419" width="5" height="7" fill="#ffd166" opacity=".85"/><rect x="632" y="419" width="5" height="7" fill="#ffd166" opacity=".85"/><rect x="620" y="435" width="5" height="7" fill="#ffd166" opacity=".85"/><rect x="632" y="435" width="5" height="7" fill="#ffd166" opacity=".85"/><rect x="656" y="435" width="5" height="7" fill="#ffd166" opacity=".85"/><rect x="644" y="451" width="5" height="7" fill="#ffd166" opacity=".85"/><rect x="656" y="451" width="5" height="7" fill="#ffd166" opacity=".85"/><rect x="620" y="467" width="5" height="7" fill="#ffd166" opacity=".85"/><rect x="644" y="467" width="5" height="7" fill="#ffd166" opacity=".85"/><rect x="656" y="467" width="5" height="7" fill="#ffd166" opacity=".85"/><rect x="644" y="483" width="5" height="7" fill="#ffd166" opacity=".85"/><rect x="656" y="483" width="5" height="7" fill="#ffd166" opacity=".85"/><rect x="656" y="499" width="5" height="7" fill="#ffd166" opacity=".85"/><rect x="632" y="515" width="5" height="7" fill="#ffd166" opacity=".85"/><rect x="656" y="515" width="5" height="7" fill="#ffd166" opacity=".85"/><rect x="620" y="531" width="5" height="7" fill="#ffd166" opacity=".85"/><rect x="632" y="531" width="5" height="7" fill="#ffd166" opacity=".85"/><rect x="644" y="531" width="5" height="7" fill="#ffd166" opacity=".85"/><rect x="620" y="547" width="5" height="7" fill="#ffd166" opacity=".85"/><rect x="644" y="547" width="5" height="7" fill="#ffd166" opacity=".85"/><rect x="681" y="356" width="53" height="204" fill="#0a1226"/><rect x="713" y="368" width="5" height="7" fill="#ffd166" opacity=".85"/><rect x="689" y="384" width="5" height="7" fill="#ffd166" opacity=".85"/><rect x="713" y="384" width="5" height="7" fill="#ffd166" opacity=".85"/><rect x="725" y="384" width="5" height="7" fill="#ffd166" opacity=".85"/><rect x="701" y="400" width="5" height="7" fill="#ffd166" opacity=".85"/><rect x="689" y="416" width="5" height="7" fill="#ffd166" opacity=".85"/><rect x="701" y="416" width="5" height="7" fill="#ffd166" opacity=".85"/><rect x="689" y="432" width="5" height="7" fill="#ffd166" opacity=".85"/><rect x="701" y="432" width="5" height="7" fill="#ffd166" opacity=".85"/><rect x="725" y="432" width="5" height="7" fill="#ffd166" opacity=".85"/><rect x="701" y="448" width="5" height="7" fill="#ffd166" opacity=".85"/><rect x="725" y="448" width="5" height="7" fill="#ffd166" opacity=".85"/><rect x="701" y="464" width="5" height="7" fill="#ffd166" opacity=".85"/><rect x="701" y="480" width="5" height="7" fill="#ffd166" opacity=".85"/><rect x="713" y="496" width="5" height="7" fill="#ffd166" opacity=".85"/><rect x="689" y="512" width="5" height="7" fill="#ffd166" opacity=".85"/><rect x="701" y="512" width="5" height="7" fill="#ffd166" opacity=".85"/><rect x="713" y="512" width="5" height="7" fill="#ffd166" opacity=".85"/><rect x="689" y="528" width="5" height="7" fill="#ffd166" opacity=".85"/><rect x="725" y="528" width="5" height="7" fill="#ffd166" opacity=".85"/><rect x="739" y="311" width="78" height="249" fill="#0a1226"/><line x1="778" y1="311" x2="778" y2="277" stroke="#0a1226" stroke-width="3"/><circle cx="778" cy="275" r="3" fill="#ff4d4d"/><rect x="747" y="323" width="5" height="7" fill="#ffd166" opacity=".85"/><rect x="771" y="323" width="5" height="7" fill="#ffd166" opacity=".85"/><rect x="747" y="339" width="5" height="7" fill="#ffd166" opacity=".85"/><rect x="747" y="371" width="5" height="7" fill="#ffd166" opacity=".85"/><rect x="759" y="371" width="5" height="7" fill="#ffd166" opacity=".85"/><rect x="795" y="371" width="5" height="7" fill="#ffd166" opacity=".85"/><rect x="747" y="387" width="5" height="7" fill="#ffd166" opacity=".85"/><rect x="759" y="387" width="5" height="7" fill="#ffd166" opacity=".85"/><rect x="771" y="387" width="5" height="7" fill="#ffd166" opacity=".85"/><rect x="783" y="403" width="5" height="7" fill="#ffd166" opacity=".85"/><rect x="807" y="403" width="5" height="7" fill="#ffd166" opacity=".85"/><rect x="747" y="419" width="5" height="7" fill="#ffd166" opacity=".85"/><rect x="759" y="419" width="5" height="7" fill="#ffd166" opacity=".85"/><rect x="783" y="419" width="5" height="7" fill="#ffd166" opacity=".85"/><rect x="795" y="419" width="5" height="7" fill="#ffd166" opacity=".85"/><rect x="795" y="435" width="5" height="7" fill="#ffd166" opacity=".85"/><rect x="807" y="435" width="5" height="7" fill="#ffd166" opacity=".85"/><rect x="747" y="451" width="5" height="7" fill="#ffd166" opacity=".85"/><rect x="807" y="451" width="5" height="7" fill="#ffd166" opacity=".85"/><rect x="771" y="467" width="5" height="7" fill="#ffd166" opacity=".85"/><rect x="795" y="467" width="5" height="7" fill="#ffd166" opacity=".85"/><rect x="807" y="467" width="5" height="7" fill="#ffd166" opacity=".85"/><rect x="795" y="483" width="5" height="7" fill="#ffd166" opacity=".85"/><rect x="807" y="483" width="5" height="7" fill="#ffd166" opacity=".85"/><rect x="747" y="499" width="5" height="7" fill="#ffd166" opacity=".85"/><rect x="783" y="499" width="5" height="7" fill="#ffd166" opacity=".85"/><rect x="807" y="499" width="5" height="7" fill="#ffd166" opacity=".85"/><rect x="759" y="515" width="5" height="7" fill="#ffd166" opacity=".85"/><rect x="771" y="531" width="5" height="7" fill="#ffd166" opacity=".85"/><rect x="807" y="531" width="5" height="7" fill="#ffd166" opacity=".85"/><rect x="759" y="547" width="5" height="7" fill="#ffd166" opacity=".85"/><rect x="783" y="547" width="5" height="7" fill="#ffd166" opacity=".85"/><rect x="807" y="547" width="5" height="7" fill="#ffd166" opacity=".85"/><rect y="530" width="800" height="30" fill="#060b18" opacity=".8"/></svg>